<svg width="24" height="24" viewBox="0 0 24 24" fill="none" xmlns="http://www.w3.org/2000/svg">
<path d="M11.1539 12L0 7.36654C0 7.36654 1.16844 9.68998 1.16844 12.0067C1.16844 14.3234 0 16.6335 0 16.6335L11.1539 12ZM24 7.36654L12.8394 12L23.9933 16.6335C23.9933 16.6335 22.8248 14.3234 22.8248 12.0067C22.8316 9.68998 24 7.36654 24 7.36654ZM16.6335 0C16.6335 0 14.31 1.16844 11.9933 1.16844C9.67655 1.16844 7.36654 0 7.36654 0L12 11.1539L16.6335 0ZM7.35982 24C7.35982 24 9.66984 22.8316 11.9866 22.8316C14.3033 22.8316 16.6267 24 16.6267 24L11.9933 12.8461L7.35982 24Z" fill="#CE3535"/>
<path d="M4.34653 19.6755C5.98503 21.314 6.79756 23.7717 6.79756 23.7717L11.4042 12.6044L0.236847 17.2043C0.236847 17.2043 2.70803 18.0235 4.34653 19.6755ZM19.6705 4.34474C18.032 2.70624 17.2128 0.241776 17.2128 0.241776L12.5995 11.4091L23.7668 6.79578C23.7601 6.79578 21.3023 5.98324 19.6705 4.34474ZM6.79085 0.241776C6.79085 0.241776 5.9716 2.70624 4.3331 4.34474C2.6946 5.98324 0.236847 6.79578 0.236847 6.79578L11.4042 11.4091L6.79085 0.241776ZM17.2061 23.7583C17.2061 23.7583 18.0186 21.3005 19.6571 19.662C21.2956 18.0235 23.7601 17.1976 23.7601 17.1976L12.5927 12.5843L17.2061 23.7583Z" fill="#FFFCFC"/>
</svg>
