<svg width="38" height="38" viewBox="0 0 38 38" fill="none" xmlns="http://www.w3.org/2000/svg">
<path d="M17.6603 19L0 11.6637C0 11.6637 1.85003 15.3425 1.85003 19.0106C1.85003 22.6788 0 26.3363 0 26.3363L17.6603 19ZM38 11.6637L20.329 19L37.9894 26.3363C37.9894 26.3363 36.1393 22.6788 36.1393 19.0106C36.15 15.3425 38 11.6637 38 11.6637ZM26.3363 0C26.3363 0 22.6575 1.85003 18.9894 1.85003C15.3212 1.85003 11.6637 0 11.6637 0L19 17.6603L26.3363 0ZM11.653 38C11.653 38 15.3106 36.15 18.9787 36.15C22.6469 36.15 26.3257 38 26.3257 38L18.9894 20.3397L11.653 38Z" fill="#CE3535"/>
<path d="M6.88199 31.1528C9.47628 33.7471 10.7628 37.6385 10.7628 37.6385L18.0566 19.957L0.375 27.2401C0.375 27.2401 4.2877 28.5373 6.88199 31.1528ZM31.145 6.87917C28.5507 4.28488 27.2536 0.382812 27.2536 0.382812L19.9491 18.0644L37.6307 10.76C37.6201 10.76 33.7287 9.47347 31.145 6.87917ZM10.7522 0.382812C10.7522 0.382812 9.45502 4.28488 6.86073 6.87917C4.26644 9.47347 0.375 10.76 0.375 10.76L18.0566 18.0644L10.7522 0.382812ZM27.2429 37.6173C27.2429 37.6173 28.5294 33.7258 31.1237 31.1316C33.718 28.5373 37.6201 27.2295 37.6201 27.2295L19.9385 19.9251L27.2429 37.6173Z" fill="#FFFCFC"/>
</svg>
